<svg id="Gruppe_96" data-name="Gruppe 96" xmlns="http://www.w3.org/2000/svg" width="74.79" height="74.792" viewBox="0 0 74.79 74.792">
  <path id="Pfad_43" data-name="Pfad 43" d="M214.919,204.662c-10.156,0-11.431.043-15.419.226a27.41,27.41,0,0,0-9.076,1.738,19.112,19.112,0,0,0-10.937,10.937,27.416,27.416,0,0,0-1.74,9.078c-.182,3.988-.225,5.261-.225,15.417s.043,11.429.225,15.417a27.417,27.417,0,0,0,1.74,9.078,19.112,19.112,0,0,0,10.937,10.937,27.453,27.453,0,0,0,9.076,1.739c3.988.182,5.263.225,15.419.225s11.429-.043,15.417-.225a27.477,27.477,0,0,0,9.078-1.739,19.127,19.127,0,0,0,10.937-10.937,27.472,27.472,0,0,0,1.738-9.078c.182-3.989.225-5.261.225-15.417s-.043-11.429-.225-15.417a27.472,27.472,0,0,0-1.738-9.078,19.127,19.127,0,0,0-10.937-10.937,27.434,27.434,0,0,0-9.078-1.738c-3.988-.183-5.261-.226-15.417-.226Zm0,6.739c9.984,0,11.167.037,15.111.217a20.751,20.751,0,0,1,6.944,1.288,12.39,12.39,0,0,1,7.1,7.1,20.7,20.7,0,0,1,1.287,6.944c.182,3.944.219,5.125.219,15.111s-.037,11.167-.219,15.111a20.7,20.7,0,0,1-1.287,6.944,12.391,12.391,0,0,1-7.1,7.1,20.7,20.7,0,0,1-6.944,1.289c-3.944.18-5.125.217-15.111.217s-11.169-.037-15.111-.217a20.689,20.689,0,0,1-6.944-1.289,12.376,12.376,0,0,1-7.1-7.1,20.639,20.639,0,0,1-1.289-6.944c-.18-3.944-.219-5.125-.219-15.111s.039-11.167.219-15.111A20.639,20.639,0,0,1,185.767,220a12.376,12.376,0,0,1,7.1-7.1,20.739,20.739,0,0,1,6.944-1.288c3.942-.18,5.125-.217,15.111-.217" transform="translate(-177.523 -204.662)" fill="#fff"/>
  <path id="Pfad_44" data-name="Pfad 44" d="M206.045,245.649a12.465,12.465,0,1,1,12.465-12.465,12.465,12.465,0,0,1-12.465,12.465Zm0-31.668a19.2,19.2,0,1,0,19.2,19.2,19.2,19.2,0,0,0-19.2-19.2Z" transform="translate(-168.649 -195.788)" fill="#fff"/>
  <path id="Pfad_45" data-name="Pfad 45" d="M213.579,215.78a4.487,4.487,0,1,1-4.486-4.486,4.487,4.487,0,0,1,4.486,4.486Z" transform="translate(-151.734 -198.347)" fill="#fff"/>
</svg>
