<svg xmlns="http://www.w3.org/2000/svg" width="63.414" height="63.835" viewBox="0 0 63.414 63.835">
  <path id="Pfad_49" data-name="Pfad 49" d="M370.161,266.342A2.156,2.156,0,0,1,368,268.5h-9.176a2.156,2.156,0,0,1-2.155-2.155V227.878a2.156,2.156,0,0,1,2.155-2.155H368a2.156,2.156,0,0,1,2.157,2.155ZM363.416,222.1a8.717,8.717,0,1,1,8.719-8.717A8.717,8.717,0,0,1,363.416,222.1Zm54.7,44.42a1.982,1.982,0,0,1-1.982,1.982h-9.847a1.982,1.982,0,0,1-1.982-1.982V248.475c0-2.692.789-11.8-7.034-11.8-6.068,0-7.3,6.232-7.546,9.027v20.809a1.982,1.982,0,0,1-1.982,1.982h-9.523a1.98,1.98,0,0,1-1.982-1.982V227.7a1.981,1.981,0,0,1,1.982-1.982h9.523a1.982,1.982,0,0,1,1.982,1.982v3.356c2.249-3.377,5.593-5.984,12.713-5.984,15.767,0,15.677,14.73,15.677,22.824v18.615Z" transform="translate(-354.699 -204.662)" fill="#fff"/>
</svg>
