<?xml version="1.0" encoding="utf-8"?>
<!-- Generator: Adobe Illustrator 24.2.0, SVG Export Plug-In . SVG Version: 6.00 Build 0)  -->
<svg version="1.1"
	 id="svg8" xmlns:cc="http://creativecommons.org/ns#" xmlns:dc="http://purl.org/dc/elements/1.1/" xmlns:inkscape="http://www.inkscape.org/namespaces/inkscape" xmlns:rdf="http://www.w3.org/1999/02/22-rdf-syntax-ns#" xmlns:sodipodi="http://sodipodi.sourceforge.net/DTD/sodipodi-0.dtd" xmlns:svg="http://www.w3.org/2000/svg"
	 xmlns="http://www.w3.org/2000/svg" xmlns:xlink="http://www.w3.org/1999/xlink" x="0px" y="0px" viewBox="0 0 211.9 137"
	 style="enable-background:new 0 0 211.9 137;" xml:space="preserve">
<style type="text/css">
	.st0{fill:#FDC000;}
</style>
<sodipodi:namedview  bordercolor="#666666" borderopacity="1.0" fit-margin-bottom="0" fit-margin-left="0" fit-margin-right="0" fit-margin-top="0" id="base" inkscape:current-layer="layer1" inkscape:cx="453.80876" inkscape:cy="20.982745" inkscape:document-rotation="0" inkscape:document-units="mm" inkscape:pagecheckerboard="false" inkscape:pageopacity="0.0" inkscape:pageshadow="2" inkscape:window-height="1377" inkscape:window-maximized="1" inkscape:window-width="2560" inkscape:window-x="1912" inkscape:window-y="-8" inkscape:zoom="1.979899" pagecolor="#ffffff" showgrid="false">
	</sodipodi:namedview>
<g id="layer1" transform="translate(-63.922992,-99.650626)" inkscape:groupmode="layer" inkscape:label="Ebene 1">
	<path id="rect833" class="st0" d="M80.1,102.5l96.8,101.3c3.2,3.3,2.6,8.2-1.3,10.9l0,0c-3.9,2.7-9.6,2.2-12.8-1.1L66,112.3
		c-3.2-3.3-2.6-8.2,1.3-10.9l0,0C71.2,98.7,76.9,99.2,80.1,102.5z"/>
	<path id="rect835" class="st0" d="M259.6,102.5l-96.8,101.3c-3.2,3.3-2.6,8.2,1.3,10.9l0,0c3.9,2.7,9.6,2.2,12.8-1.1l96.8-101.3
		c3.2-3.3,2.6-8.2-1.3-10.9l0,0C268.6,98.7,262.8,99.2,259.6,102.5z"/>
</g>
</svg>
