<?xml version="1.0" encoding="utf-8"?>
<!-- Generator: Adobe Illustrator 24.1.3, SVG Export Plug-In . SVG Version: 6.00 Build 0)  -->
<svg version="1.1" id="Ebene_1" xmlns="http://www.w3.org/2000/svg" xmlns:xlink="http://www.w3.org/1999/xlink" x="0px" y="0px"
	 viewBox="0 0 100.2 100.2" width="100.2" height="100.2" style="enable-background:new 0 0 100.2 100.2;" xml:space="preserve">
<style type="text/css">
	.st0{fill:none;stroke:#FDC300;stroke-width:1.2;stroke-miterlimit:10;}
	.st1{fill:none;stroke:#FDC300;stroke-width:1.2;}
	.st2{fill:#FFFFFF;stroke:#FFFFFF;stroke-width:0.6;stroke-miterlimit:10;}
</style>
<g id="Gruppe_50">
	<g id="Gruppe_30">
		<g id="Ellipse_7">
			<circle class="st0" cx="50.1" cy="50.1" r="49.5"/>
			<circle class="st1" cx="50.1" cy="50.1" r="49"/>
		</g>
	</g>
</g>
<g id="Play">
	<g>
		<path class="st2" d="M42.5,48.4c0,1.3-1,2.4-2.3,2.4c-0.1,0-0.2,0-0.3,0H38v3.1h-1V46h2.8c1.3-0.2,2.5,0.7,2.7,2
			C42.5,48.2,42.5,48.3,42.5,48.4z M41.5,48.4c0-1-0.5-1.5-1.8-1.5H38v3h1.7C40.9,49.9,41.5,49.4,41.5,48.4L41.5,48.4z"/>
		<path class="st2" d="M50,53v0.9h-5.5V46h1v7H50z"/>
		<path class="st2" d="M57.2,51.7h-3.6l-0.8,2.2h-1l3.1-7.9H56l3.1,7.9h-1L57.2,51.7z M56.9,50.8L55.8,48l-0.4-1.1l0,0L55.1,48
			L54,50.8H56.9z"/>
		<path class="st2" d="M62.6,50.8v3.1h-1v-3.1L58.8,46H60l2.2,3.8l2.2-3.8h1.1L62.6,50.8z"/>
	</g>
</g>
</svg>
