<?xml version="1.0" encoding="utf-8"?>
<!-- Generator: Adobe Illustrator 24.1.3, SVG Export Plug-In . SVG Version: 6.00 Build 0)  -->
<svg version="1.1" id="Ebene_1" xmlns="http://www.w3.org/2000/svg" xmlns:xlink="http://www.w3.org/1999/xlink" x="0px" y="0px"
	 viewBox="0 0 100.2 100.2" width="100.2" height="100.2" style="enable-background:new 0 0 100.2 100.2;" xml:space="preserve">
<style type="text/css">
	.st0{fill:#FFFFFF;stroke:#FFFFFF;stroke-width:0.6;stroke-miterlimit:10;}
	.st1{fill:none;stroke:#FDC300;stroke-width:1.2;stroke-miterlimit:10;}
	.st2{fill:none;stroke:#FDC300;stroke-width:1.2;}
</style>
<g id="Play">
	<g>
		<path class="st0" d="M34.5,54.6c-2.3,0-3.7-1.6-3.7-4.1s1.4-4.1,3.6-4.1c1.3-0.1,2.6,0.6,3.1,1.8l-1,0.4c-0.3-0.9-1.1-1.4-2-1.4
			c-1.6,0-2.7,1.2-2.7,3.2s1,3.2,2.7,3.2c1,0.1,1.9-0.6,2.2-1.6l1,0.4C37.2,53.8,35.9,54.6,34.5,54.6z"/>
		<path class="st0" d="M45.1,53.5v0.9h-5.5v-7.9h1v7H45.1z"/>
		<path class="st0" d="M53.5,50.5c0,2.5-1.4,4.1-3.7,4.1s-3.7-1.6-3.7-4.1s1.4-4.1,3.7-4.1S53.5,48,53.5,50.5z M47.2,50.5
			c0,2,1,3.2,2.7,3.2s2.7-1.2,2.7-3.2s-1-3.2-2.7-3.2S47.2,48.5,47.2,50.5z"/>
		<path class="st0" d="M61.4,48.1l-0.8,0.7c-0.3-0.9-1.2-1.5-2.2-1.5c-1.3,0-2,0.6-2,1.3s0.5,1.1,2.2,1.4c2.1,0.4,2.9,1,2.9,2.3
			s-1.2,2.3-3.1,2.3C57,54.7,55.7,54,55,52.8l0.8-0.7c0.4,1,1.5,1.6,2.5,1.5c1.2,0,2-0.5,2-1.3c0-0.7-0.5-1.1-2.2-1.4
			c-2.1-0.4-2.9-1-2.9-2.2s1.1-2.3,3-2.3C59.6,46.3,60.8,47,61.4,48.1z"/>
		<path class="st0" d="M69.4,53.5v0.9h-5.8v-7.9h5.6v0.9h-4.6V50h3.6v0.9h-3.6v2.7L69.4,53.5z"/>
	</g>
</g>
<g id="Gruppe_50_1_">
	<g id="Gruppe_30_1_">
		<g id="Ellipse_7_1_">
			<circle class="st1" cx="50.1" cy="50.1" r="49.5"/>
			<circle class="st2" cx="50.1" cy="50.1" r="49"/>
		</g>
	</g>
</g>
</svg>
